<?xml version="1.0" encoding="UTF-8"?>
<svg version="1.1" xmlns="http://www.w3.org/2000/svg" width="85" height="107">
<path d="M0 0 C3.04984416 1.29054127 3.85819305 2.27932631 6 5 C6.14453125 8.68359375 6.14453125 8.68359375 6 12 C7.13179687 12.27714844 8.26359375 12.55429687 9.4296875 12.83984375 C10.91148902 13.20560488 12.39325818 13.57149711 13.875 13.9375 C14.62136719 14.11990234 15.36773437 14.30230469 16.13671875 14.49023438 C21.7734375 15.88671875 21.7734375 15.88671875 24 17 C24 32.84 24 48.68 24 65 C23.34 65 22.68 65 22 65 C22.020625 66.134375 22.04125 67.26875 22.0625 68.4375 C22 72 22 72 21 73 C20.87949115 74.42894397 20.8205052 75.86320327 20.7890625 77.296875 C20.74652344 78.61171875 20.74652344 78.61171875 20.703125 79.953125 C20.65148346 81.80189215 20.60708483 83.65087734 20.5703125 85.5 C20.37982876 90.9287866 20.03887914 94.96112086 16 99 C12.94428169 99.1384882 9.91283395 99.21321486 6.85546875 99.23828125 C5.47347038 99.25038887 5.47347038 99.25038887 4.06355286 99.26274109 C2.10903821 99.27659967 0.15449918 99.28731385 -1.80004883 99.29516602 C-4.78969264 99.31236876 -7.77822803 99.35623734 -10.76757812 99.40039062 C-12.66405435 99.41051796 -14.56053999 99.41903394 -16.45703125 99.42578125 C-17.35194778 99.44328934 -18.24686432 99.46079742 -19.16889954 99.47883606 C-25.39090882 99.45709714 -25.39090882 99.45709714 -28.53393555 97.09838867 C-30.6847748 94.01987687 -31.12239123 92.35868413 -31.09765625 88.6484375 C-31.09443359 87.79765625 -31.09121094 86.946875 -31.08789062 86.0703125 C-31.07951172 85.18085937 -31.07113281 84.29140625 -31.0625 83.375 C-31.05798828 82.4778125 -31.05347656 81.580625 -31.04882812 80.65625 C-31.03702591 78.43743352 -31.02056155 76.21874982 -31 74 C-31.66 74 -32.32 74 -33 74 C-33 71.03 -33 68.06 -33 65 C-33.66 65 -34.32 65 -35 65 C-35 49.82 -35 34.64 -35 19 C-23 14 -23 14 -18 13 C-17.9175 11.7625 -17.835 10.525 -17.75 9.25 C-17.36645256 6.10935789 -17.10108751 5.12717461 -15.0625 2.5625 C-10.44823402 -0.93315604 -5.61025639 -0.68648707 0 0 Z " fill="#B5842C" transform="translate(48,4)"/>
<path d="M0 0 C3.27908342 1.3806667 3.8720114 2.7890698 5.375 6 C6.43966428 8.64939499 7.41701349 11.30851408 8.375 14 C8.375 13.01 8.375 12.02 8.375 11 C9.365 11 10.355 11 11.375 11 C11.36976318 11.60062256 11.36452637 12.20124512 11.35913086 12.82006836 C11.33841986 15.52586838 11.32535875 18.23165177 11.3125 20.9375 C11.29993164 22.35579102 11.29993164 22.35579102 11.28710938 23.80273438 C11.28388672 24.70185547 11.28066406 25.60097656 11.27734375 26.52734375 C11.27210693 27.35999756 11.26687012 28.19265137 11.26147461 29.05053711 C11.15856708 31.00516798 11.15856708 31.00516798 12.375 32 C12.44744053 34.01964199 12.45877188 36.04167124 12.4375 38.0625 C12.42847656 39.16722656 12.41945312 40.27195313 12.41015625 41.41015625 C12.39855469 42.26480469 12.38695312 43.11945313 12.375 44 C11.715 44 11.055 44 10.375 44 C10.045 43.01 9.715 42.02 9.375 41 C9.045 41.99 8.715 42.98 8.375 44 C8.705 44.33 9.035 44.66 9.375 45 C9.44744053 47.01964199 9.45877188 49.04167124 9.4375 51.0625 C9.42847656 52.16722656 9.41945312 53.27195313 9.41015625 54.41015625 C9.39855469 55.26480469 9.38695312 56.11945313 9.375 57 C7.725 57 6.075 57 4.375 57 C4.375 56.34 4.375 55.68 4.375 55 C3.26125 55.495 3.26125 55.495 2.125 56 C-0.625 57 -0.625 57 -4.625 57 C0.655 57.66 5.935 58.32 11.375 59 C11.375 54.71 11.375 50.42 11.375 46 C13.355 45.505 13.355 45.505 15.375 45 C14.715 44.01 14.055 43.02 13.375 42 C13.04166667 35.66666667 13.04166667 35.66666667 14.375 33 C15.365 33 16.355 33 17.375 33 C17.375 32.34 17.375 31.68 17.375 31 C18.365 31.33 19.355 31.66 20.375 32 C21.99430989 35.68024974 21.50378946 40.07192162 21.375 44 C21.045 44.33 20.715 44.66 20.375 45 C20.25449115 46.42894397 20.1955052 47.86320327 20.1640625 49.296875 C20.12152344 50.61171875 20.12152344 50.61171875 20.078125 51.953125 C20.02648346 53.80189215 19.98208483 55.65087734 19.9453125 57.5 C19.75482876 62.9287866 19.41387914 66.96112086 15.375 71 C13.52130389 71.08737645 11.66432459 71.10698153 9.80859375 71.09765625 C8.68388672 71.09443359 7.55917969 71.09121094 6.40039062 71.08789062 C5.21638672 71.07951172 4.03238281 71.07113281 2.8125 71.0625 C1.62462891 71.05798828 0.43675781 71.05347656 -0.78710938 71.04882812 C-3.73312226 71.03699675 -6.67903681 71.02051287 -9.625 71 C-10.12 70.01 -10.12 70.01 -10.625 69 C-13.595 69 -16.565 69 -19.625 69 C-19.955 68.01 -20.285 67.02 -20.625 66 C-19.820625 66.020625 -19.01625 66.04125 -18.1875 66.0625 C-15.69145115 66.29633621 -15.69145115 66.29633621 -14.625 65 C-15.945 65 -17.265 65 -18.625 65 C-18.13 62.03 -18.13 62.03 -17.625 59 C-15.645 58.505 -15.645 58.505 -13.625 58 C-14.615 57.01 -15.605 56.02 -16.625 55 C-16.955 55.66 -17.285 56.32 -17.625 57 C-18.945 56.34 -20.265 55.68 -21.625 55 C-21.625 52.03 -21.625 49.06 -21.625 46 C-20.14 45.505 -20.14 45.505 -18.625 45 C-21.595 44.67 -24.565 44.34 -27.625 44 C-27.625 43.01 -27.625 42.02 -27.625 41 C-28.285 41 -28.945 41 -29.625 41 C-29.955 41.99 -30.285 42.98 -30.625 44 C-30.625 40.04 -30.625 36.08 -30.625 32 C-29.305 32.33 -27.985 32.66 -26.625 33 C-25.14 32.505 -25.14 32.505 -23.625 32 C-21.4375 32.4375 -21.4375 32.4375 -19.625 33 C-19.625 33.99 -19.625 34.98 -19.625 36 C-20.285 36 -20.945 36 -21.625 36 C-21.625 36.66 -21.625 37.32 -21.625 38 C-20.965 38 -20.305 38 -19.625 38 C-19.625 38.66 -19.625 39.32 -19.625 40 C-20.285 40 -20.945 40 -21.625 40 C-21.625 40.66 -21.625 41.32 -21.625 42 C-20.635 42 -19.645 42 -18.625 42 C-18.625 39.36 -18.625 36.72 -18.625 34 C-17.965 34 -17.305 34 -16.625 34 C-16.295 34.66 -15.965 35.32 -15.625 36 C-15.295 35.01 -14.965 34.02 -14.625 33 C-12.2989143 32.61936779 -9.96444736 32.28730055 -7.625 32 C-7.13 32.495 -7.13 32.495 -6.625 33 C-6.295 32.34 -5.965 31.68 -5.625 31 C-9.255 31 -12.885 31 -16.625 31 C-17.87624131 19.32174777 -17.87624131 19.32174777 -16.625 16 C-13.6705379 13.67224198 -11.05653936 12.85208723 -7.4375 12.1875 C-6.179375 11.795625 -4.92125 11.40375 -3.625 11 C-2.01352558 8.00571856 -2.01352558 8.00571856 -1.625 5 C-3.605 5 -5.585 5 -7.625 5 C-7.625 4.34 -7.625 3.68 -7.625 3 C-4.98755213 0.96539736 -3.36422278 0 0 0 Z " fill="#432422" transform="translate(48.625,32)"/>
<path d="M0 0 C1.65 0 3.3 0 5 0 C4.01 0.495 4.01 0.495 3 1 C3 1.99 3 2.98 3 4 C3.99 3.67 4.98 3.34 6 3 C6.66 3.66 7.32 4.32 8 5 C7.625 8.125 7.625 8.125 7 11 C7.99 11 8.98 11 10 11 C9.98839844 11.77085938 9.97679688 12.54171875 9.96484375 13.3359375 C9.95582031 14.33882812 9.94679688 15.34171875 9.9375 16.375 C9.92589844 17.37273438 9.91429688 18.37046875 9.90234375 19.3984375 C9.81993398 21.98432453 9.81993398 21.98432453 11 24 C10.67 24.99 10.34 25.98 10 27 C10.93972656 26.87431641 10.93972656 26.87431641 11.8984375 26.74609375 C12.71570313 26.64425781 13.53296875 26.54242188 14.375 26.4375 C15.18710937 26.33308594 15.99921875 26.22867188 16.8359375 26.12109375 C19 26 19 26 21 27 C20.34 28.32 19.68 29.64 19 31 C19 30.01 19 29.02 19 28 C16.69 28.33 14.38 28.66 12 29 C12 30.65 12 32.3 12 34 C11.34 32.68 10.68 31.36 10 30 C9.34 30 8.68 30 8 30 C8 32.64 8 35.28 8 38 C7.01 38 6.02 38 5 38 C5 37.34 5 36.68 5 36 C5.66 36 6.32 36 7 36 C7 35.34 7 34.68 7 34 C6.34 34 5.68 34 5 34 C5 33.34 5 32.68 5 32 C5.66 32 6.32 32 7 32 C7 31.01 7 30.02 7 29 C5.02 29 3.04 29 1 29 C0.34 30.32 -0.32 31.64 -1 33 C-1.12375 32.360625 -1.2475 31.72125 -1.375 31.0625 C-1.58125 30.381875 -1.7875 29.70125 -2 29 C-2.66 28.67 -3.32 28.34 -4 28 C-3.67 30.97 -3.34 33.94 -3 37 C-2.34 37 -1.68 37 -1 37 C-0.34 37.66 0.32 38.32 1 39 C3.31765729 39.71927295 5.65095874 40.3909893 8 41 C8 43.97 8 46.94 8 50 C7.67 50 7.34 50 7 50 C7 47.36 7 44.72 7 42 C6.34 42 5.68 42 5 42 C5.08708669 43.45945288 5.19526907 44.91765868 5.3125 46.375 C5.39951172 47.59316406 5.39951172 47.59316406 5.48828125 48.8359375 C5.82990528 51.37921338 5.82990528 51.37921338 9 53 C9.66 51.68 10.32 50.36 11 49 C11 50.32 11 51.64 11 53 C13.31 53 15.62 53 18 53 C15.42233201 55.57766799 13.54119318 55.48357599 10 56 C9.01 56.495 9.01 56.495 8 57 C8 58.32 8 59.64 8 61 C9.32 61 10.64 61 12 61 C11.67 61.66 11.34 62.32 11 63 C9.35 62.67 7.7 62.34 6 62 C6.33 62.66 6.66 63.32 7 64 C10.3 64 13.6 64 17 64 C17 64.99 17 65.98 17 67 C14.24894578 67.10812003 11.50214913 67.18734945 8.75 67.25 C7.97269531 67.28351563 7.19539063 67.31703125 6.39453125 67.3515625 C0.59230246 67.4507459 0.59230246 67.4507459 -2.484375 65.109375 C-4.69389452 62.03427051 -5.12255966 60.38394874 -5.09765625 56.6484375 C-5.09443359 55.79765625 -5.09121094 54.946875 -5.08789062 54.0703125 C-5.07951172 53.18085937 -5.07113281 52.29140625 -5.0625 51.375 C-5.05798828 50.4778125 -5.05347656 49.580625 -5.04882812 48.65625 C-5.03702591 46.43743352 -5.02056155 44.21874982 -5 42 C-5.66 42 -6.32 42 -7 42 C-7 39.03 -7 36.06 -7 33 C-7.66 33 -8.32 33 -9 33 C-9.11591764 28.89606988 -9.18715601 24.79255894 -9.25 20.6875 C-9.28351562 19.52025391 -9.31703125 18.35300781 -9.3515625 17.15039062 C-9.36445313 16.03212891 -9.37734375 14.91386719 -9.390625 13.76171875 C-9.41157227 12.73006592 -9.43251953 11.69841309 -9.45410156 10.63549805 C-9 8 -9 8 -7.20996094 6.15161133 C-4.10015081 4.53108831 -1.44643904 4.80116698 2 5 C2 3.68 2 2.36 2 1 C1.34 0.67 0.68 0.34 0 0 Z " fill="#030102" transform="translate(22,36)"/>
<path d="M0 0 C3.27908342 1.3806667 3.8720114 2.7890698 5.375 6 C6.43966428 8.64939499 7.41701349 11.30851408 8.375 14 C8.375 13.01 8.375 12.02 8.375 11 C9.365 11 10.355 11 11.375 11 C11.36976318 11.60062256 11.36452637 12.20124512 11.35913086 12.82006836 C11.33841986 15.52586838 11.32535875 18.23165177 11.3125 20.9375 C11.30412109 21.88302734 11.29574219 22.82855469 11.28710938 23.80273438 C11.28388672 24.70185547 11.28066406 25.60097656 11.27734375 26.52734375 C11.27210693 27.35999756 11.26687012 28.19265137 11.26147461 29.05053711 C11.15856708 31.00516798 11.15856708 31.00516798 12.375 32 C12.44744053 34.01964199 12.45877188 36.04167124 12.4375 38.0625 C12.42847656 39.16722656 12.41945313 40.27195313 12.41015625 41.41015625 C12.39855469 42.26480469 12.38695313 43.11945313 12.375 44 C11.715 44 11.055 44 10.375 44 C10.045 43.01 9.715 42.02 9.375 41 C9.045 41.99 8.715 42.98 8.375 44 C8.87 44.495 8.87 44.495 9.375 45 C9.44744053 47.01964199 9.45877188 49.04167124 9.4375 51.0625 C9.42847656 52.16722656 9.41945313 53.27195313 9.41015625 54.41015625 C9.39855469 55.26480469 9.38695313 56.11945313 9.375 57 C7.725 57 6.075 57 4.375 57 C4.375 52.71 4.375 48.42 4.375 44 C2.725 44 1.075 44 -0.625 44 C-0.955 43.34 -1.285 42.68 -1.625 42 C-1.955 42.66 -2.285 43.32 -2.625 44 C-4.5625 43.625 -4.5625 43.625 -6.625 43 C-8.0149408 40.2201184 -7.80988204 38.0813674 -7.625 35 C-6.965 33.68 -6.305 32.36 -5.625 31 C-9.255 31 -12.885 31 -16.625 31 C-17.87624131 19.32174777 -17.87624131 19.32174777 -16.625 16 C-13.6705379 13.67224198 -11.05653936 12.85208723 -7.4375 12.1875 C-6.179375 11.795625 -4.92125 11.40375 -3.625 11 C-2.01352558 8.00571856 -2.01352558 8.00571856 -1.625 5 C-3.605 5 -5.585 5 -7.625 5 C-7.625 4.34 -7.625 3.68 -7.625 3 C-4.98755213 0.96539736 -3.36422278 0 0 0 Z " fill="#312C31" transform="translate(48.625,32)"/>
<path d="M0 0 C0 9.24 0 18.48 0 28 C-0.99 27.67 -1.98 27.34 -3 27 C-3.3721042 25.67696283 -3.70630173 24.34262065 -4 23 C-4.66 22.67 -5.32 22.34 -6 22 C-6 22.66 -6 23.32 -6 24 C-6.99 24 -7.98 24 -9 24 C-9.47530891 30.03091135 -9.47530891 30.03091135 -7.5 35.5625 C-7.005 36.036875 -6.51 36.51125 -6 37 C-7.98 37 -9.96 37 -12 37 C-12 41.29 -12 45.58 -12 50 C-18.27 49.67 -24.54 49.34 -31 49 C-30.01 48.34 -29.02 47.68 -28 47 C-27.34 47.33 -26.68 47.66 -26 48 C-25.67 47.34 -25.34 46.68 -25 46 C-23 46 -21 46 -19 46 C-19 46.66 -19 47.32 -19 48 C-18.34 48 -17.68 48 -17 48 C-16.67 47.34 -16.34 46.68 -16 46 C-16 46.66 -16 47.32 -16 48 C-15.34 48 -14.68 48 -14 48 C-14 44.04 -14 40.08 -14 36 C-14.66 36 -15.32 36 -16 36 C-16 38.31 -16 40.62 -16 43 C-16.33 43 -16.66 43 -17 43 C-17 40.36 -17 37.72 -17 35 C-16.34 35 -15.68 35 -15 35 C-14.67 33.68 -14.34 32.36 -14 31 C-13.67 32.32 -13.34 33.64 -13 35 C-12.34 35 -11.68 35 -11 35 C-11 31.04 -11 27.08 -11 23 C-13.64 23 -16.28 23 -19 23 C-19 22.67 -19 22.34 -19 22 C-16.36 22 -13.72 22 -11 22 C-11 14.74 -11 7.48 -11 0 C-5 -1 -5 -1 0 0 Z " fill="#010000" transform="translate(72,41)"/>
<path d="M0 0 C3.06006595 2.04004397 3.77157178 2.69269325 5 6 C5.125 8.75 5.125 8.75 5 11 C4.01 11.495 4.01 11.495 3 12 C3.33 13.32 3.66 14.64 4 16 C4.66 16 5.32 16 6 16 C6 16.66 6 17.32 6 18 C5.01 18 4.02 18 3 18 C2.34 19.32 1.68 20.64 1 22 C-0.216875 21.814375 -1.43375 21.62875 -2.6875 21.4375 C-6.02977939 21.01006818 -8.71968417 21.07741117 -12 22 C-12.66 20.68 -13.32 19.36 -14 18 C-14.66 18 -15.32 18 -16 18 C-15.34 19.32 -14.68 20.64 -14 22 C-15.32 21.34 -16.64 20.68 -18 20 C-17.67 18.68 -17.34 17.36 -17 16 C-16.34 16 -15.68 16 -15 16 C-14.67 14.35 -14.34 12.7 -14 11 C-14.66 11 -15.32 11 -16 11 C-15.72671902 7.44734731 -15.38829012 4.68833249 -13.625 1.5625 C-9.40203948 -0.95116697 -4.79501231 -0.62957414 0 0 Z " fill="#7E8394" transform="translate(48,4)"/>
<path d="M0 0 C5.75 0.75 5.75 0.75 8 3 C10.31765729 3.71927295 12.65095874 4.3909893 15 5 C15 7.97 15 10.94 15 14 C14.67 14 14.34 14 14 14 C14 11.36 14 8.72 14 6 C13.34 6 12.68 6 12 6 C12.08708669 7.45945288 12.19526907 8.91765868 12.3125 10.375 C12.39951172 11.59316406 12.39951172 11.59316406 12.48828125 12.8359375 C12.82990528 15.37921338 12.82990528 15.37921338 16 17 C16.66 15.68 17.32 14.36 18 13 C18 14.32 18 15.64 18 17 C20.31 17 22.62 17 25 17 C22.42233201 19.57766799 20.54119318 19.48357599 17 20 C16.34 20.33 15.68 20.66 15 21 C15 22.32 15 23.64 15 25 C16.32 25 17.64 25 19 25 C18.67 25.66 18.34 26.32 18 27 C16.35 26.67 14.7 26.34 13 26 C13.33 26.66 13.66 27.32 14 28 C17.3 28 20.6 28 24 28 C24 28.99 24 29.98 24 31 C21.24894578 31.10812003 18.50214913 31.18734945 15.75 31.25 C14.58404297 31.30027344 14.58404297 31.30027344 13.39453125 31.3515625 C7.59230246 31.4507459 7.59230246 31.4507459 4.515625 29.109375 C2.30610548 26.03427051 1.87744034 24.38394874 1.90234375 20.6484375 C1.90556641 19.79765625 1.90878906 18.946875 1.91210938 18.0703125 C1.92048828 17.18085937 1.92886719 16.29140625 1.9375 15.375 C1.94201172 14.4778125 1.94652344 13.580625 1.95117188 12.65625 C1.96297409 10.43743352 1.97943845 8.21874982 2 6 C1.34 6 0.68 6 0 6 C0 4.02 0 2.04 0 0 Z " fill="#412220" transform="translate(15,72)"/>
<path d="M0 0 C3.30785906 1.39278276 3.88023849 2.73870217 5.375 6 C8.375 13.88018433 8.375 13.88018433 8.375 18 C6.0625 19.75 6.0625 19.75 3.375 21 C2.385 20.67 1.395 20.34 0.375 20 C-1.32172386 21.29486821 -2.9853279 22.63360658 -4.625 24 C-9.00128829 26.36556124 -12.76151445 26.16486392 -17.625 26 C-17.97959838 22.92681407 -18.12222409 20.06268883 -17.625 17 C-14.44765562 13.90208923 -11.60911981 12.93628208 -7.375 12.125 C-5.51875 11.568125 -5.51875 11.568125 -3.625 11 C-2.01352558 8.00571856 -2.01352558 8.00571856 -1.625 5 C-3.605 5 -5.585 5 -7.625 5 C-7.625 4.34 -7.625 3.68 -7.625 3 C-4.98755213 0.96539736 -3.36422278 0 0 0 Z " fill="#E3ECF6" transform="translate(48.625,32)"/>
<path d="M0 0 C1.32 0.33 2.64 0.66 4 1 C4.99 0.67 5.98 0.34 7 0 C9.1875 0.4375 9.1875 0.4375 11 1 C11 1.99 11 2.98 11 4 C10.34 4 9.68 4 9 4 C9 4.66 9 5.32 9 6 C9.66 6 10.32 6 11 6 C11 6.66 11 7.32 11 8 C10.34 8 9.68 8 9 8 C9 8.66 9 9.32 9 10 C9.99 10 10.98 10 12 10 C12 7.36 12 4.72 12 2 C12.66 2 13.32 2 14 2 C14.33 2.66 14.66 3.32 15 4 C15.33 3.01 15.66 2.02 16 1 C19.465 0.505 19.465 0.505 23 0 C23 0.99 23 1.98 23 3 C22.34 3 21.68 3 21 3 C21 5.97 21 8.94 21 12 C20.01 12.495 20.01 12.495 19 13 C19.99 13 20.98 13 22 13 C22 16.63 22 20.26 22 24 C19.66705225 24.04241723 17.33297433 24.04092937 15 24 C14.67 23.67 14.34 23.34 14 23 C13.67 23.66 13.34 24.32 13 25 C11.68 24.34 10.36 23.68 9 23 C9 20.03 9 17.06 9 14 C9.99 13.67 10.98 13.34 12 13 C9.03 12.67 6.06 12.34 3 12 C3 11.01 3 10.02 3 9 C2.34 9 1.68 9 1 9 C0.67 9.99 0.34 10.98 0 12 C0 8.04 0 4.08 0 0 Z " fill="#614D49" transform="translate(18,64)"/>
<path d="M0 0 C0.66 0.33 1.32 0.66 2 1 C1.37240135 3.92879371 0.41377341 6.36095629 -1 9 C-0.34 9 0.32 9 1 9 C1 10.98 1 12.96 1 15 C0.01 15 -0.98 15 -2 15 C-1.45773019 18.79588866 0.20127563 20.47211993 3 23 C0.28657384 25.71342616 -2.61044313 25.94040005 -6.25 26.625 C-6.90613281 26.7590625 -7.56226563 26.893125 -8.23828125 27.03125 C-12.21260386 27.8055713 -15.95550609 28.13816594 -20 28 C-20 24.37 -20 20.74 -20 17 C-18.10667466 16.18167278 -16.21022267 15.37057732 -14.3125 14.5625 C-13.25675781 14.11003906 -12.20101563 13.65757813 -11.11328125 13.19140625 C-8.38027471 12.14552545 -5.87957663 11.46479252 -3 11 C-2.87625 9.741875 -2.7525 8.48375 -2.625 7.1875 C-2.30131941 3.89674737 -1.93395001 2.90092502 0 0 Z " fill="#0B0A09" transform="translate(33,6)"/>
<path d="M0 0 C0.99 0.66 1.98 1.32 3 2 C3.1875 5.625 3.1875 5.625 3 9 C4.13179687 9.27714844 5.26359375 9.55429687 6.4296875 9.83984375 C7.91148902 10.20560488 9.39325818 10.57149711 10.875 10.9375 C11.62136719 11.11990234 12.36773437 11.30230469 13.13671875 11.49023438 C18.7734375 12.88671875 18.7734375 12.88671875 21 14 C21 17.63 21 21.26 21 25 C13.01743127 25.18782515 5.79621699 24.71885099 -2 23 C-0.63016497 19.83884224 -0.0109362 19.0072908 3 17 C3 16.01 3 15.02 3 14 C2.01 14 1.02 14 0 14 C-0.33 11.69 -0.66 9.38 -1 7 C-0.01 7.33 0.98 7.66 2 8 C1.34 5.36 0.68 2.72 0 0 Z " fill="#080606" transform="translate(51,7)"/>
<path d="M0 0 C0.33 0 0.66 0 1 0 C1 2.97 1 5.94 1 9 C1.66 9 2.32 9 3 9 C3 6.03 3 3.06 3 0 C3.66 0 4.32 0 5 0 C5.10957031 0.56589844 5.21914063 1.13179688 5.33203125 1.71484375 C5.49058594 2.44832031 5.64914063 3.18179688 5.8125 3.9375 C5.96332031 4.66839844 6.11414062 5.39929688 6.26953125 6.15234375 C6.51058594 6.76207031 6.75164063 7.37179688 7 8 C7.99 8.33 8.98 8.66 10 9 C10.33 6.69 10.66 4.38 11 2 C11.33 2 11.66 2 12 2 C12 4.31 12 6.62 12 9 C12.99 8.67 13.98 8.34 15 8 C15.66 8.33 16.32 8.66 17 9 C17 12.63 17 16.26 17 20 C12 22 12 22 8 22 C10.64 22.33 13.28 22.66 16 23 C16 23.33 16 23.66 16 24 C13.72923158 24.02699725 11.45837179 24.04639453 9.1875 24.0625 C7.29064453 24.07990234 7.29064453 24.07990234 5.35546875 24.09765625 C1.50997793 23.98573859 -0.25902195 23.74097805 -3 21 C-2.34 21 -1.68 21 -1 21 C-0.67 20.01 -0.34 19.02 0 18 C0 18.99 0 19.98 0 21 C1.32 21 2.64 21 4 21 C4 17.37 4 13.74 4 10 C3.01 10 2.02 10 1 10 C0.67 10.99 0.34 11.98 0 13 C0 8.71 0 4.42 0 0 Z " fill="#241816" transform="translate(36,67)"/>
<path d="M0 0 C0.78375 0.185625 1.5675 0.37125 2.375 0.5625 C5.50488222 0.94024441 7.73429141 0.8793736 10.8125 0.5 C15.74505355 -0.09130763 20.09146418 0.28747061 25 1 C25.66 2.98 26.32 4.96 27 7 C26.02417969 7.06058594 25.04835938 7.12117188 24.04296875 7.18359375 C22.13451172 7.30927734 22.13451172 7.30927734 20.1875 7.4375 C18.92292969 7.51871094 17.65835938 7.59992188 16.35546875 7.68359375 C13.00818107 7.87184547 13.00818107 7.87184547 10 9 C9.34 8.67 8.68 8.34 8 8 C6.45976004 7.93049459 4.91665012 7.91547643 3.375 7.9375 C2.55773438 7.94652344 1.74046875 7.95554687 0.8984375 7.96484375 C0.27195312 7.97644531 -0.35453125 7.98804687 -1 8 C-1.33 7.01 -1.66 6.02 -2 5 C-0.7934375 5.0309375 -0.7934375 5.0309375 0.4375 5.0625 C2.93354885 5.29633621 2.93354885 5.29633621 4 4 C2.68 4 1.36 4 0 4 C0 2.68 0 1.36 0 0 Z " fill="#8E7C7C" transform="translate(30,93)"/>
<path d="M0 0 C1.65 0 3.3 0 5 0 C5 2.97 5 5.94 5 9 C1.37 9 -2.26 9 -6 9 C-6 16.26 -6 23.52 -6 31 C-6.33 31 -6.66 31 -7 31 C-7 24.4 -7 17.8 -7 11 C-7.99 11 -8.98 11 -10 11 C-9.67 13.31 -9.34 15.62 -9 18 C-10.74948531 15.37577203 -11.57610997 13.56738891 -12.5 10.625 C-13.54973678 7.35856017 -14.67209941 4.16653218 -16 1 C-14.72125 1.165 -13.4425 1.33 -12.125 1.5 C-7.0715842 2.07041736 -2.07937351 2.09543708 3 2 C2.01 1.34 1.02 0.68 0 0 Z " fill="#87662A" transform="translate(67,32)"/>
<path d="M0 0 C1.32 0.33 2.64 0.66 4 1 C4.99 0.67 5.98 0.34 7 0 C9.1875 0.4375 9.1875 0.4375 11 1 C11 1.99 11 2.98 11 4 C10.34 4 9.68 4 9 4 C9 4.66 9 5.32 9 6 C9.66 6 10.32 6 11 6 C11 6.66 11 7.32 11 8 C10.34 8 9.68 8 9 8 C9 8.66 9 9.32 9 10 C9.99 10 10.98 10 12 10 C12 7.36 12 4.72 12 2 C12.66 2 13.32 2 14 2 C14.33 2.66 14.66 3.32 15 4 C15.66 3.34 16.32 2.68 17 2 C17 5.3 17 8.6 17 12 C16.01 12 15.02 12 14 12 C12.2984375 12.2784375 12.2984375 12.2784375 10.5625 12.5625 C7.50020609 12.93857118 5.83187039 13.01947334 3 12 C3 11.01 3 10.02 3 9 C2.34 9 1.68 9 1 9 C0.67 9.99 0.34 10.98 0 12 C0 8.04 0 4.08 0 0 Z " fill="#726869" transform="translate(18,64)"/>
<path d="M0 0 C0.99 0 1.98 0 3 0 C3 0.66 3 1.32 3 2 C2.01 2 1.02 2 0 2 C0 2.66 0 3.32 0 4 C1.32 4 2.64 4 4 4 C4 4.66 4 5.32 4 6 C2.68 6 1.36 6 0 6 C0 6.66 0 7.32 0 8 C1.65 7.34 3.3 6.68 5 6 C5 4.68 5 3.36 5 2 C5.99 2 6.98 2 8 2 C8.33 2.66 8.66 3.32 9 4 C10.32 4 11.64 4 13 4 C13 3.34 13 2.68 13 2 C11.68 1.34 10.36 0.68 9 0 C11.375 0.1875 11.375 0.1875 14 1 C15.3125 3.5625 15.3125 3.5625 16 6 C16.66 6 17.32 6 18 6 C18 6.66 18 7.32 18 8 C17.01 8 16.02 8 15 8 C14.34 9.32 13.68 10.64 13 12 C11.783125 11.814375 10.56625 11.62875 9.3125 11.4375 C5.97022061 11.01006818 3.28031583 11.07741117 0 12 C-0.66 10.68 -1.32 9.36 -2 8 C-2.66 8 -3.32 8 -4 8 C-3.34 9.32 -2.68 10.64 -2 12 C-3.32 11.34 -4.64 10.68 -6 10 C-5.67 8.68 -5.34 7.36 -5 6 C-4.34 6 -3.68 6 -3 6 C-2.690625 5.195625 -2.38125 4.39125 -2.0625 3.5625 C-1 1 -1 1 0 0 Z " fill="#F7CFAE" transform="translate(36,14)"/>
<path d="M0 0 C0.33 0 0.66 0 1 0 C1 6.93 1 13.86 1 21 C2.32 21.66 3.64 22.32 5 23 C4.01 23 3.02 23 2 23 C1.52469109 29.03091135 1.52469109 29.03091135 3.5 34.5625 C3.995 35.036875 4.49 35.51125 5 36 C3.02 36 1.04 36 -1 36 C-1 40.29 -1 44.58 -1 49 C-7.27 48.67 -13.54 48.34 -20 48 C-19.01 47.34 -18.02 46.68 -17 46 C-16.34 46.33 -15.68 46.66 -15 47 C-14.67 46.34 -14.34 45.68 -14 45 C-12 45 -10 45 -8 45 C-8 45.66 -8 46.32 -8 47 C-7.34 47 -6.68 47 -6 47 C-5.67 46.34 -5.34 45.68 -5 45 C-5 45.66 -5 46.32 -5 47 C-4.34 47 -3.68 47 -3 47 C-3 43.04 -3 39.08 -3 35 C-3.66 35 -4.32 35 -5 35 C-5 37.31 -5 39.62 -5 42 C-5.33 42 -5.66 42 -6 42 C-6 39.36 -6 36.72 -6 34 C-5.34 34 -4.68 34 -4 34 C-3.67 32.68 -3.34 31.36 -3 30 C-2.67 31.32 -2.34 32.64 -2 34 C-1.34 34 -0.68 34 0 34 C0 30.04 0 26.08 0 22 C-2.64 22 -5.28 22 -8 22 C-8 21.67 -8 21.34 -8 21 C-5.36 21 -2.72 21 0 21 C0 14.07 0 7.14 0 0 Z " fill="#090101" transform="translate(61,42)"/>
<path d="M0 0 C0.33 0.99 0.66 1.98 1 3 C0.360625 3.268125 -0.27875 3.53625 -0.9375 3.8125 C-3.33131686 4.88667752 -3.33131686 4.88667752 -4 8 C-3.39937744 8.11069824 -2.79875488 8.22139648 -2.17993164 8.33544922 C0.52764062 8.83965946 3.23250685 9.3571398 5.9375 9.875 C7.35579102 10.13603516 7.35579102 10.13603516 8.80273438 10.40234375 C9.70185547 10.57636719 10.60097656 10.75039063 11.52734375 10.9296875 C12.35999756 11.08679199 13.19265137 11.24389648 14.05053711 11.40576172 C14.69385986 11.60186035 15.33718262 11.79795898 16 12 C16.495 12.99 16.495 12.99 17 14 C0.17179024 14.58589512 0.17179024 14.58589512 -7 11 C-6.67 9.68 -6.34 8.36 -6 7 C-6.9075 7.185625 -7.815 7.37125 -8.75 7.5625 C-11.68314324 7.95734621 -13.2644657 7.94691572 -16 7 C-16 6.01 -16 5.02 -16 4 C-8.57142857 2.71428571 -8.57142857 2.71428571 -5 4 C-4.34 3.01 -3.68 2.02 -3 1 C-2.01 0.67 -1.02 0.34 0 0 Z " fill="#9F7361" transform="translate(54,21)"/>
<path d="M0 0 C1.4606285 2.64738916 2 3.89448334 2 7 C-0.3125 8.75 -0.3125 8.75 -3 10 C-3.99 9.67 -4.98 9.34 -6 9 C-7.69672386 10.29486821 -9.3603279 11.63360658 -11 13 C-15.37628829 15.36556124 -19.13651445 15.16486392 -24 15 C-24 14.01 -24 13.02 -24 12 C-22.824375 11.608125 -21.64875 11.21625 -20.4375 10.8125 C-17.32204948 9.66557308 -14.88633512 8.32549341 -12.25 6.3125 C-9 4 -9 4 -5 4 C-2.26780807 2.08140833 -2.26780807 2.08140833 0 0 Z " fill="#E6EEF6" transform="translate(55,43)"/>
<path d="M0 0 C0.66 0.33 1.32 0.66 2 1 C3.32860925 1.35169068 4.66158328 1.68770276 6 2 C5.49396008 4.16874252 5.00016187 5.99967627 4 8 C3.34 7.67 2.68 7.34 2 7 C2.33 8.32 2.66 9.64 3 11 C1.02 11 -0.96 11 -3 11 C-2.67 10.01 -2.34 9.02 -2 8 C-2.6496875 8.99 -2.6496875 8.99 -3.3125 10 C-7.51781411 13.12953609 -11.92749266 12.31484528 -17 12 C-17 10.35 -17 8.7 -17 7 C-16.02160156 6.85304688 -16.02160156 6.85304688 -15.0234375 6.703125 C-8.97158737 5.66770521 -4.44801335 4.44801335 0 0 Z " fill="#9C98A3" transform="translate(49,51)"/>
<path d="M0 0 C0.99 0.33 1.98 0.66 3 1 C4.61930989 4.68024974 4.12878946 9.07192162 4 13 C3.67 13.33 3.34 13.66 3 14 C2.84344973 15.48638992 2.74933057 16.97949127 2.68359375 18.47265625 C2.64169922 19.37177734 2.59980469 20.27089844 2.55664062 21.19726562 C2.49766602 22.61555664 2.49766602 22.61555664 2.4375 24.0625 C2.37272461 25.4865918 2.37272461 25.4865918 2.30664062 26.93945312 C2.20020724 29.29281353 2.09818992 31.64628354 2 34 C1.67 34 1.34 34 1 34 C1 28.06 1 22.12 1 16 C-0.32 15.67 -1.64 15.34 -3 15 C-3 14.34 -3 13.68 -3 13 C-3.33 12.34 -3.66 11.68 -4 11 C-4.23333333 4.46666667 -4.23333333 4.46666667 -3 2 C-2.01 2 -1.02 2 0 2 C0 1.34 0 0.68 0 0 Z " fill="#120505" transform="translate(66,63)"/>
<path d="M0 0 C0.99 0 1.98 0 3 0 C3 6.6 3 13.2 3 20 C0.69 20 -1.62 20 -4 20 C-4.17942163 16.05272412 -4.09350689 13.4019487 -2 10 C-3.32 10.33 -4.64 10.66 -6 11 C-4.1875 9 -4.1875 9 -2 7 C-1.01 7 -0.02 7 1 7 C0.67 4.69 0.34 2.38 0 0 Z " fill="#D9A132" transform="translate(57,43)"/>
<path d="M0 0 C0.33 0.99 0.66 1.98 1 3 C-0.9375 6.1875 -0.9375 6.1875 -3 9 C-1.68 7.68 -0.36 6.36 1 5 C1.66 5.33 2.32 5.66 3 6 C3 7.65 3 9.3 3 11 C-5.42857143 13.28571429 -5.42857143 13.28571429 -10 13 C-8.46818923 4.06443719 -8.46818923 4.06443719 -4.5 1.1875 C-2 0 -2 0 0 0 Z " fill="#C3A292" transform="translate(39,32)"/>
<path d="M0 0 C1.231394 2.46278801 1.07159196 4.2795055 1 7 C-0.10408203 7.07347656 -0.10408203 7.07347656 -1.23046875 7.1484375 C-2.20628906 7.22320313 -3.18210937 7.29796875 -4.1875 7.375 C-5.15042969 7.44460937 -6.11335938 7.51421875 -7.10546875 7.5859375 C-10.01508938 8.00215853 -12.32890774 8.79874096 -15 10 C-14.25 3.25 -14.25 3.25 -12 1 C-8.15899602 -0.47730922 -4.04749486 -0.06745825 0 0 Z " fill="#F3F7FA" transform="translate(47,5)"/>
<path d="M0 0 C3.45831586 -0.02894547 6.91660072 -0.04678 10.375 -0.0625 C11.35984375 -0.07087891 12.3446875 -0.07925781 13.359375 -0.08789062 C14.77089844 -0.09272461 14.77089844 -0.09272461 16.2109375 -0.09765625 C17.51490479 -0.10551147 17.51490479 -0.10551147 18.84521484 -0.11352539 C21 0 21 0 23 1 C22.34 2.32 21.68 3.64 21 5 C21 4.01 21 3.02 21 2 C18.69 2.33 16.38 2.66 14 3 C14 4.65 14 6.3 14 8 C13.34 6.68 12.68 5.36 12 4 C11.34 4 10.68 4 10 4 C10 6.64 10 9.28 10 12 C9.01 12 8.02 12 7 12 C7 11.34 7 10.68 7 10 C7.66 10 8.32 10 9 10 C9 9.34 9 8.68 9 8 C8.34 8 7.68 8 7 8 C7 7.34 7 6.68 7 6 C7.66 6 8.32 6 9 6 C9 5.01 9 4.02 9 3 C7.02 3 5.04 3 3 3 C2.34 4.32 1.68 5.64 1 7 C0.67 4.69 0.34 2.38 0 0 Z " fill="#201A1B" transform="translate(20,62)"/>
<path d="M0 0 C0.66 0.66 1.32 1.32 2 2 C2.66 2.33 3.32 2.66 4 3 C-0.93069452 7.18788859 -4.44672101 9.72694671 -11 10 C-11.375 7.25 -11.375 7.25 -11 4 C-7.4987448 0.9058675 -4.71916205 -0.78652701 0 0 Z " fill="#B9C6D8" transform="translate(42,45)"/>
<path d="M0 0 C2.64 0.66 5.28 1.32 8 2 C8.25 4.3125 8.25 4.3125 8 7 C4.99445668 10.24598678 1.18792231 10.95301942 -3 12 C-4.11375 12.3403125 -4.11375 12.3403125 -5.25 12.6875 C-7 13 -7 13 -10 12 C-10 11.34 -10 10.68 -10 10 C-5.46298506 8.54815522 -1.81938524 7.76490804 3 8 C2.34 6.68 1.68 5.36 1 4 C0.01 4.99 -0.98 5.98 -2 7 C-2.66 6.67 -3.32 6.34 -4 6 C-2.68 4.02 -1.36 2.04 0 0 Z " fill="#6F5657" transform="translate(39,35)"/>
<path d="M0 0 C2.475 0.99 2.475 0.99 5 2 C5 5.3 5 8.6 5 12 C4.01 12.495 4.01 12.495 3 13 C5.97 13.33 8.94 13.66 12 14 C12 14.33 12 14.66 12 15 C9.72923158 15.02699725 7.45837179 15.04639453 5.1875 15.0625 C3.29064453 15.07990234 3.29064453 15.07990234 1.35546875 15.09765625 C-2.49002207 14.98573859 -4.25902195 14.74097805 -7 12 C-6.34 12 -5.68 12 -5 12 C-4.67 11.01 -4.34 10.02 -4 9 C-4 9.99 -4 10.98 -4 12 C-2.68 12 -1.36 12 0 12 C0 8.04 0 4.08 0 0 Z " fill="#2D1815" transform="translate(40,76)"/>
<path d="M0 0 C0.66 0 1.32 0 2 0 C2.33 3.96 2.66 7.92 3 12 C3.66 12 4.32 12 5 12 C5 15.96 5 19.92 5 24 C3.35 24 1.7 24 0 24 C0 16.08 0 8.16 0 0 Z " fill="#BAA296" transform="translate(53,65)"/>
<path d="M0 0 C0 2.97 0 5.94 0 9 C-0.33 9 -0.66 9 -1 9 C-1 6.36 -1 3.72 -1 1 C-1.66 1 -2.32 1 -3 1 C-2.91291331 2.45945288 -2.80473093 3.91765868 -2.6875 5.375 C-2.60048828 6.59316406 -2.60048828 6.59316406 -2.51171875 7.8359375 C-2.17009472 10.37921338 -2.17009472 10.37921338 1 12 C1.66 10.68 2.32 9.36 3 8 C3 9.32 3 10.64 3 12 C5.31 12 7.62 12 10 12 C7.48987037 14.51012963 6.53194763 14.29721609 3.0625 14.3125 C1.74958984 14.33763672 1.74958984 14.33763672 0.41015625 14.36328125 C-2 14 -2 14 -3.8046875 12.8046875 C-5.419196 10.36709624 -5.30036434 8.70935137 -5.1875 5.8125 C-5.14689453 4.46091797 -5.14689453 4.46091797 -5.10546875 3.08203125 C-5.07066406 2.39496094 -5.03585938 1.70789063 -5 1 C-7.31 1 -9.62 1 -12 1 C-12 0.67 -12 0.34 -12 0 C-7.74433453 -1.16063604 -4.3164922 -0.76173392 0 0 Z " fill="#100605" transform="translate(30,77)"/>
<path d="M0 0 C0.66 0 1.32 0 2 0 C2.721875 0.99 3.44375 1.98 4.1875 3 C5.44753125 4.69069819 5.44753125 4.69069819 7 6 C10.58428147 6.50031206 10.58428147 6.50031206 14 6 C14.99 6 15.98 6 17 6 C15.19587357 9.26460973 14.16605307 10.88929795 11 13 C8.8125 12.625 8.8125 12.625 7 12 C6.896875 11.360625 6.79375 10.72125 6.6875 10.0625 C6.460625 9.381875 6.23375 8.70125 6 8 C5.01 7.67 4.02 7.34 3 7 C0 2.66666667 0 2.66666667 0 0 Z " fill="#532E32" transform="translate(32,22)"/>
<path d="M0 0 C5.94 0.99 5.94 0.99 12 2 C12 2.66 12 3.32 12 4 C11.01 4.33 10.02 4.66 9 5 C8.67 5.99 8.34 6.98 8 8 C5.03 8 2.06 8 -1 8 C-1.33 7.01 -1.66 6.02 -2 5 C-0.7934375 5.0309375 -0.7934375 5.0309375 0.4375 5.0625 C2.93354885 5.29633621 2.93354885 5.29633621 4 4 C2.68 4 1.36 4 0 4 C0 2.68 0 1.36 0 0 Z " fill="#A39594" transform="translate(30,93)"/>
<path d="M0 0 C0.66 0 1.32 0 2 0 C2 0.66 2 1.32 2 2 C3.670625 1.9690625 3.670625 1.9690625 5.375 1.9375 C9 2 9 2 11 3 C11 4.32 11 5.64 11 7 C10.06027344 7.19916016 10.06027344 7.19916016 9.1015625 7.40234375 C7.87566406 7.66724609 7.87566406 7.66724609 6.625 7.9375 C5.81289063 8.11152344 5.00078125 8.28554688 4.1640625 8.46484375 C1.970537 8.92330693 1.970537 8.92330693 0 10 C0 6.7 0 3.4 0 0 Z " fill="#70531C" transform="translate(13,34)"/>
<path d="M0 0 C15.87944162 1.03680203 15.87944162 1.03680203 22 3 C22.33 3.66 22.66 4.32 23 5 C15.40501039 5.26442904 8.42640842 4.60881575 1 3 C0.67 2.01 0.34 1.02 0 0 Z " fill="#BA892F" transform="translate(48,30)"/>
<path d="M0 0 C1.98 0 3.96 0 6 0 C6 3.63 6 7.26 6 11 C3.69 11 1.38 11 -1 11 C-0.67 7.37 -0.34 3.74 0 0 Z " fill="#E9C19F" transform="translate(34,77)"/>
<path d="M0 0 C1.32 0.66 2.64 1.32 4 2 C4.25 8.625 4.25 8.625 2 12 C1.01 11.67 0.02 11.34 -1 11 C-2.50662097 7.98675805 -2.17770373 5.31713623 -2 2 C-1.34 1.34 -0.68 0.68 0 0 Z " fill="#9D806A" transform="translate(48,77)"/>
<path d="M0 0 C1.32 0.33 2.64 0.66 4 1 C4.66 0.67 5.32 0.34 6 0 C6 3.96 6 7.92 6 12 C5.01 12 4.02 12 3 12 C3 11.01 3 10.02 3 9 C2.34 9 1.68 9 1 9 C0.67 9.99 0.34 10.98 0 12 C0 8.04 0 4.08 0 0 Z " fill="#DEDCDC" transform="translate(18,64)"/>
<path d="M0 0 C7.4659249 -0.36717663 7.4659249 -0.36717663 10 1.375 C11 3 11 3 11 5 C9.35 5.33 7.7 5.66 6 6 C6 5.01 6 4.02 6 3 C5.01 3 4.02 3 3 3 C3.309375 3.928125 3.309375 3.928125 3.625 4.875 C3.74875 5.57625 3.8725 6.2775 4 7 C3.34 7.66 2.68 8.32 2 9 C0.68 9 -0.64 9 -2 9 C-2 8.34 -2 7.68 -2 7 C-0.68 7 0.64 7 2 7 C2 6.34 2 5.68 2 5 C0.68 5 -0.64 5 -2 5 C-2 4.34 -2 3.68 -2 3 C-1.01 3 -0.02 3 1 3 C0.67 2.01 0.34 1.02 0 0 Z " fill="#60352B" transform="translate(38,13)"/>
<path d="M0 0 C0.33 0 0.66 0 1 0 C1 6.93 1 13.86 1 21 C2.32 21.66 3.64 22.32 5 23 C4.01 23 3.02 23 2 23 C2 26.96 2 30.92 2 35 C1.34 34.67 0.68 34.34 0 34 C0 30.04 0 26.08 0 22 C-2.64 22 -5.28 22 -8 22 C-8 21.67 -8 21.34 -8 21 C-5.36 21 -2.72 21 0 21 C0 14.07 0 7.14 0 0 Z " fill="#23170F" transform="translate(61,42)"/>
<path d="M0 0 C0 3 0 3 -1.8125 5.6875 C-6.41433264 9.02608446 -10.49253173 8.43403866 -16 8 C-16 7.01 -16 6.02 -16 5 C-15.14728516 4.83564453 -15.14728516 4.83564453 -14.27734375 4.66796875 C-9.17683242 3.62061834 -4.715558 2.20728247 0 0 Z " fill="#CED8E6" transform="translate(48,55)"/>
<path d="M0 0 C0 1.98 0 3.96 0 6 C0.33 6 0.66 6 1 6 C1.33 6 1.66 6 2 6 C2 7.98 2 9.96 2 12 C0.02 12.33 -1.96 12.66 -4 13 C-4.17942163 9.05272412 -4.09350689 6.4019487 -2 3 C-3.32 3.33 -4.64 3.66 -6 4 C-2.25 0 -2.25 0 0 0 Z " fill="#C9952F" transform="translate(57,50)"/>
<path d="M0 0 C2.375 0.1875 2.375 0.1875 5 1 C6.3125 3.5625 6.3125 3.5625 7 6 C7.66 6 8.32 6 9 6 C9 6.66 9 7.32 9 8 C8.01 8 7.02 8 6 8 C5.67 8.66 5.34 9.32 5 10 C5 9.34 5 8.68 5 8 C2.69 8 0.38 8 -2 8 C-1.67 6.68 -1.34 5.36 -1 4 C0.65 4 2.3 4 4 4 C4 3.34 4 2.68 4 2 C2.68 1.34 1.36 0.68 0 0 Z " fill="#CA9C84" transform="translate(45,14)"/>
<path d="M0 0 C0.66 0 1.32 0 2 0 C2.66 1.65 3.32 3.3 4 5 C1.36 6.98 -1.28 8.96 -4 11 C-4 10.34 -4 9.68 -4 9 C-4.66 8.67 -5.32 8.34 -6 8 C-5.04956626 6.66102417 -4.08940853 5.32894573 -3.125 4 C-2.59132812 3.2575 -2.05765625 2.515 -1.5078125 1.75 C-1.01023437 1.1725 -0.51265625 0.595 0 0 Z " fill="#BAC7D9" transform="translate(52,38)"/>
<path d="M0 0 C1.32 0.33 2.64 0.66 4 1 C4 4.63 4 8.26 4 12 C2.68 12 1.36 12 0 12 C0 8.04 0 4.08 0 0 Z " fill="#F9F9F9" transform="translate(48,64)"/>
<path d="M0 0 C0 3.63 0 7.26 0 11 C-0.66 11 -1.32 11 -2 11 C-2.33 10.01 -2.66 9.02 -3 8 C-3.66 8.99 -4.32 9.98 -5 11 C-5 7.7 -5 4.4 -5 1 C-2 0 -2 0 0 0 Z " fill="#DBD8D9" transform="translate(61,65)"/>
<path d="M0 0 C1.32 0.33 2.64 0.66 4 1 C4 4.3 4 7.6 4 11 C2.68 11 1.36 11 0 11 C0 7.37 0 3.74 0 0 Z " fill="#DFB798" transform="translate(41,77)"/>
<path d="M0 0 C0.99 0 1.98 0 3 0 C3 0.66 3 1.32 3 2 C2.01 2 1.02 2 0 2 C0 2.66 0 3.32 0 4 C1.32 4 2.64 4 4 4 C4 4.66 4 5.32 4 6 C2.35 6 0.7 6 -1 6 C-1.33 7.32 -1.66 8.64 -2 10 C-2 9.34 -2 8.68 -2 8 C-2.66 8 -3.32 8 -4 8 C-3.34 9.32 -2.68 10.64 -2 12 C-3.32 11.34 -4.64 10.68 -6 10 C-5.67 8.68 -5.34 7.36 -5 6 C-4.34 6 -3.68 6 -3 6 C-2.690625 5.195625 -2.38125 4.39125 -2.0625 3.5625 C-1 1 -1 1 0 0 Z " fill="#E9BA98" transform="translate(36,14)"/>
<path d="M0 0 C0.99 0.33 1.98 0.66 3 1 C3 2.65 3 4.3 3 6 C-5.42857143 8.28571429 -5.42857143 8.28571429 -10 8 C-9.67 7.34 -9.34 6.68 -9 6 C-6.9375 5.375 -6.9375 5.375 -5 5 C-5 4.34 -5 3.68 -5 3 C-4.01 3.33 -3.02 3.66 -2 4 C-1.34 2.68 -0.68 1.36 0 0 Z " fill="#EBD0BB" transform="translate(39,37)"/>
<path d="M0 0 C2.4389764 0.28199727 4.87570933 0.57515615 7.3125 0.875 C8.00279297 0.95363281 8.69308594 1.03226563 9.40429688 1.11328125 C12.95639471 1.55943847 14.9697029 1.97980193 18 4 C15.36 4 12.72 4 10 4 C9.67 4.66 9.34 5.32 9 6 C9 5.34 9 4.68 9 4 C8.34 4 7.68 4 7 4 C6.67 4.99 6.34 5.98 6 7 C6 5.68 6 4.36 6 3 C5.195625 2.87625 4.39125 2.7525 3.5625 2.625 C2.716875 2.41875 1.87125 2.2125 1 2 C0.67 1.34 0.34 0.68 0 0 Z " fill="#150E07" transform="translate(51,33)"/>
<path d="M0 0 C-1.2065625 0.61875 -1.2065625 0.61875 -2.4375 1.25 C-5.14109718 2.73452331 -5.14109718 2.73452331 -5.8125 5.1875 C-5.874375 5.785625 -5.93625 6.38375 -6 7 C-7.98 7 -9.96 7 -12 7 C-12.33 5.35 -12.66 3.7 -13 2 C-11.5882217 1.46605821 -10.17029756 0.94834896 -8.75 0.4375 C-7.96109375 0.14746094 -7.1721875 -0.14257812 -6.359375 -0.44140625 C-3.80896548 -1.04522837 -2.44677771 -0.8473932 0 0 Z " fill="#604A26" transform="translate(37,33)"/>
<path d="M0 0 C0.99 0 1.98 0 3 0 C3 0.99 3 1.98 3 3 C2.34 3 1.68 3 1 3 C1.33 3.66 1.66 4.32 2 5 C2.66 5 3.32 5 4 5 C4 6.65 4 8.3 4 10 C2.68 10.33 1.36 10.66 0 11 C-1.49297212 8.01405576 -1.11755228 5.29146376 -1 2 C-0.67 1.34 -0.34 0.68 0 0 Z " fill="#D3D1D1" transform="translate(63,65)"/>
<path d="M0 0 C0.66 0 1.32 0 2 0 C2.33 0.66 2.66 1.32 3 2 C3.66 1.34 4.32 0.68 5 0 C5 3.3 5 6.6 5 10 C3.35 9.67 1.7 9.34 0 9 C0 6.03 0 3.06 0 0 Z " fill="#E7E5E6" transform="translate(30,66)"/>
<path d="M0 0 C0.33 0 0.66 0 1 0 C1.02698189 1.62490954 1.04638757 3.24994633 1.0625 4.875 C1.07410156 5.77992187 1.08570313 6.68484375 1.09765625 7.6171875 C1 10 1 10 0 12 C-1.32 11.34 -2.64 10.68 -4 10 C-4 7.03 -4 4.06 -4 1 C-3.34 1 -2.68 1 -2 1 C-2 3.64 -2 6.28 -2 9 C-1.34 9 -0.68 9 0 9 C0 6.03 0 3.06 0 0 Z " fill="#E8C7A5" transform="translate(31,77)"/>
<path d="M0 0 C0.66 0.33 1.32 0.66 2 1 C2 1.99 2 2.98 2 4 C2.66 4.33 3.32 4.66 4 5 C3.34 5 2.68 5 2 5 C2 9.29 2 13.58 2 18 C1.01 17.67 0.02 17.34 -1 17 C-0.34 17 0.32 17 1 17 C1 13.04 1 9.08 1 5 C0.34 5 -0.32 5 -1 5 C-1 7.31 -1 9.62 -1 12 C-1.33 12 -1.66 12 -2 12 C-2 9.36 -2 6.72 -2 4 C-1.34 4 -0.68 4 0 4 C0 2.68 0 1.36 0 0 Z " fill="#231615" transform="translate(57,72)"/>
<path d="M0 0 C0 0.99 0 1.98 0 3 C-3.47325181 4.1577506 -6.36067448 4.06866652 -10 4 C-10 3.34 -10 2.68 -10 2 C-6.37626474 -0.79545292 -4.37834956 -1.37605272 0 0 Z " fill="#C1D0E1" transform="translate(51,33)"/>
<path d="M0 0 C0.53625 0.2475 1.0725 0.495 1.625 0.75 C0.635 1.245 0.635 1.245 -0.375 1.75 C-0.045 2.41 0.285 3.07 0.625 3.75 C-5.125 6.75 -5.125 6.75 -7.375 6.75 C-7.705 5.76 -8.035 4.77 -8.375 3.75 C-2.95961538 -0.31153846 -2.95961538 -0.31153846 0 0 Z " fill="#9FB3CD" transform="translate(39.375,45.25)"/>
<path d="M0 0 C1.65 0 3.3 0 5 0 C5 2.97 5 5.94 5 9 C3.35 8.67 1.7 8.34 0 8 C-0.33 6.35 -0.66 4.7 -1 3 C0.32 2.67 1.64 2.34 3 2 C2.01 1.34 1.02 0.68 0 0 Z " fill="#63481A" transform="translate(67,32)"/>
<path d="M0 0 C0.99 0.33 1.98 0.66 3 1 C2.67 7.93 2.34 14.86 2 22 C1.67 22 1.34 22 1 22 C1 16.06 1 10.12 1 4 C-0.32 3.67 -1.64 3.34 -3 3 C-2.01 2.01 -1.02 1.02 0 0 Z " fill="#2E1A19" transform="translate(66,75)"/>
<path d="M0 0 C0.66 0 1.32 0 2 0 C2 3.96 2 7.92 2 12 C1.34 12 0.68 12 0 12 C0 11.34 0 10.68 0 10 C-0.66 10 -1.32 10 -2 10 C-2 9.01 -2 8.02 -2 7 C-1.34 7 -0.68 7 0 7 C0 4.69 0 2.38 0 0 Z " fill="#E8BA9A" transform="translate(56,77)"/>
<path d="M0 0 C0.66 0 1.32 0 2 0 C2 1.98 2 3.96 2 6 C4.51083114 4.74458443 4.87125446 3.49936512 6 1 C6.125 6.75 6.125 6.75 5 9 C3.0625 8.625 3.0625 8.625 1 8 C-0.35439668 5.29120665 -0.06501451 2.99066732 0 0 Z " fill="#E5E4E4" transform="translate(41,67)"/>
<path d="M0 0 C0.33 0.99 0.66 1.98 1 3 C0.38125 3.20625 -0.2375 3.4125 -0.875 3.625 C-3.84653645 5.54775888 -4.13024659 7.66594527 -5 11 C-5.66 11 -6.32 11 -7 11 C-6.814375 10.38125 -6.62875 9.7625 -6.4375 9.125 C-5.76313824 6.95839822 -5.76313824 6.95839822 -7 5 C-4.63707344 2.47411298 -3.33537489 1.11179163 0 0 Z " fill="#7A5B55" transform="translate(54,21)"/>
<path d="M0 0 C1.32 0.66 2.64 1.32 4 2 C3.34 4.31 2.68 6.62 2 9 C1.34 9 0.68 9 0 9 C-0.87890625 2.84765625 -0.87890625 2.84765625 -1 1 C-0.67 0.67 -0.34 0.34 0 0 Z " fill="#7D7A7A" transform="translate(43,64)"/>
<path d="M0 0 C1.65 0.33 3.3 0.66 5 1 C5.33 1.99 5.66 2.98 6 4 C4.5625 6.1875 4.5625 6.1875 3 8 C2.34 6.68 1.68 5.36 1 4 C0.01 4.99 -0.98 5.98 -2 7 C-2.66 6.67 -3.32 6.34 -4 6 C-2.68 4.02 -1.36 2.04 0 0 Z " fill="#8E8281" transform="translate(39,35)"/>
<path d="M0 0 C0.79921875 0.00902344 1.5984375 0.01804688 2.421875 0.02734375 C3.02515625 0.03894531 3.6284375 0.05054688 4.25 0.0625 C2.2873772 2.11045423 0.8222693 3.01226638 -2.01953125 3.26171875 C-4.26954383 3.25108877 -6.50385562 3.19208525 -8.75 3.0625 C-8.75 2.4025 -8.75 1.7425 -8.75 1.0625 C-5.75519083 0.1901588 -3.11424089 -0.04579766 0 0 Z " fill="#C49031" transform="translate(23.75,32.9375)"/>
<path d="M0 0 C0.99 0.33 1.98 0.66 3 1 C3 1.99 3 2.98 3 4 C0.625 5.75 0.625 5.75 -2 7 C-2.66 6.67 -3.32 6.34 -4 6 C-3.6875 4.125 -3.6875 4.125 -3 2 C-2.01 1.34 -1.02 0.68 0 0 Z " fill="#BACADD" transform="translate(54,46)"/>
<path d="M0 0 C2.875 0.25 2.875 0.25 6 1 C7.375 3.0625 7.375 3.0625 8 5 C6.35 5 4.7 5 3 5 C2.67 5.66 2.34 6.32 2 7 C1.34 6.67 0.68 6.34 0 6 C0 4.02 0 2.04 0 0 Z " fill="#312323" transform="translate(15,72)"/>
<path d="M0 0 C0.33 0.66 0.66 1.32 1 2 C2.65 1.67 4.3 1.34 6 1 C6 1.66 6 2.32 6 3 C6.99 3.33 7.98 3.66 9 4 C7.68942607 4.36122881 6.37646376 4.71380311 5.0625 5.0625 C4.33160156 5.25972656 3.60070313 5.45695312 2.84765625 5.66015625 C2.23792969 5.77230469 1.62820312 5.88445313 1 6 C0 5 0 5 -0.0625 2.4375 C-0.041875 1.633125 -0.02125 0.82875 0 0 Z " fill="#EFC09F" transform="translate(35,20)"/>
<path d="M0 0 C-0.33 1.65 -0.66 3.3 -1 5 C-3.64 5 -6.28 5 -9 5 C-9.33 4.34 -9.66 3.68 -10 3 C-7.69 3 -5.38 3 -3 3 C-2.67 2.34 -2.34 1.68 -2 1 C-3.65 1 -5.3 1 -7 1 C-3.375 -1.125 -3.375 -1.125 0 0 Z " fill="#E4EBF2" transform="translate(48,6)"/>
<path d="M0 0 C0.99 0 1.98 0 3 0 C3 0.99 3 1.98 3 3 C2.34 3 1.68 3 1 3 C1 3.66 1 4.32 1 5 C1.66 5 2.32 5 3 5 C3 5.66 3 6.32 3 7 C2.34 7 1.68 7 1 7 C1 7.66 1 8.32 1 9 C1.66 9 2.32 9 3 9 C3 9.66 3 10.32 3 11 C2.01 11 1.02 11 0 11 C0 7.37 0 3.74 0 0 Z " fill="#F2F1F1" transform="translate(26,65)"/>
<path d="M0 0 C0 0.33 0 0.66 0 1 C-1.65 1 -3.3 1 -5 1 C-5.33 1.99 -5.66 2.98 -6 4 C-8.94389782 5.17755913 -9.89953913 5.03348696 -13 4 C-13 3.34 -13 2.68 -13 2 C-8.46298506 0.54815522 -4.81938524 -0.23509196 0 0 Z " fill="#C77B62" transform="translate(42,43)"/>
<path d="M0 0 C0.99 0 1.98 0 3 0 C2.67 3.63 2.34 7.26 2 11 C1.34 11 0.68 11 0 11 C0 7.37 0 3.74 0 0 Z " fill="#DBD7D8" transform="translate(37,65)"/>
<path d="M0 0 C0.25 2.8125 0.25 2.8125 0 6 C-2 7.875 -2 7.875 -4 9 C-3.34 7.02 -2.68 5.04 -2 3 C-3.32 3.33 -4.64 3.66 -6 4 C-2.25 0 -2.25 0 0 0 Z " fill="#72483C" transform="translate(57,50)"/>
<path d="M0 0 C0.33 0.99 0.66 1.98 1 3 C-0.9375 5.6875 -0.9375 5.6875 -3 8 C-3.99 6.02 -4.98 4.04 -6 2 C-2.25 0 -2.25 0 0 0 Z " fill="#E5C8B4" transform="translate(39,32)"/>
<path d="M0 0 C0.66 0.33 1.32 0.66 2 1 C1.34 2.32 0.68 3.64 0 5 C0.66 5 1.32 5 2 5 C2 5.66 2 6.32 2 7 C0.35 7.66 -1.3 8.32 -3 9 C-2.25 2.25 -2.25 2.25 0 0 Z " fill="#DBE5EF" transform="translate(35,6)"/>
<path d="M0 0 C0.99 0.33 1.98 0.66 3 1 C2.34 1 1.68 1 1 1 C1 1.66 1 2.32 1 3 C1.66 3 2.32 3 3 3 C3 3.99 3 4.98 3 6 C2.34 6 1.68 6 1 6 C1.33 7.98 1.66 9.96 2 12 C1.34 12 0.68 12 0 12 C0 8.04 0 4.08 0 0 Z " fill="#ADA8A9" transform="translate(48,64)"/>
<path d="M0 0 C3.85645121 -0.22036864 6.49223216 0.39644899 10 2 C10 2.33 10 2.66 10 3 C7.03 3 4.06 3 1 3 C0.67 2.01 0.34 1.02 0 0 Z " fill="#948382" transform="translate(28,98)"/>
<path d="M0 0 C0.33 0 0.66 0 1 0 C1 1.98 1 3.96 1 6 C0.67 5.34 0.34 4.68 0 4 C-0.66 4 -1.32 4 -2 4 C-1.34 5.32 -0.68 6.64 0 8 C-1.32 7.34 -2.64 6.68 -4 6 C-3.67 4.68 -3.34 3.36 -3 2 C-2.34 2 -1.68 2 -1 2 C-0.67 1.34 -0.34 0.68 0 0 Z " fill="#BBA69C" transform="translate(34,18)"/>
<path d="M0 0 C0.99 1.32 1.98 2.64 3 4 C2.34 5.32 1.68 6.64 1 8 C1 7.01 1 6.02 1 5 C0.34 5 -0.32 5 -1 5 C-1.33 5.99 -1.66 6.98 -2 8 C-2 6.35 -2 4.7 -2 3 C-1.34 3 -0.68 3 0 3 C0 2.01 0 1.02 0 0 Z " fill="#33292A" transform="translate(66,65)"/>
<path d="M0 0 C1.65 0 3.3 0 5 0 C5 0.99 5 1.98 5 3 C4.34 3 3.68 3 3 3 C2.34 4.32 1.68 5.64 1 7 C0.67 4.69 0.34 2.38 0 0 Z " fill="#160A0A" transform="translate(20,62)"/>
<path d="M0 0 C0.99 0.33 1.98 0.66 3 1 C3 2.65 3 4.3 3 6 C1.68 6 0.36 6 -1 6 C-0.67 4.02 -0.34 2.04 0 0 Z " fill="#F5C7A6" transform="translate(39,37)"/>
<path d="M0 0 C3.375 -0.125 3.375 -0.125 7 0 C7.66 0.66 8.32 1.32 9 2 C6.36 2.33 3.72 2.66 1 3 C0.67 2.01 0.34 1.02 0 0 Z " fill="#221717" transform="translate(25,62)"/>
<path d="M0 0 C0.33 0 0.66 0 1 0 C1 3.63 1 7.26 1 11 C0.01 11 -0.98 11 -2 11 C-2 10.01 -2 9.02 -2 8 C-1.34 8 -0.68 8 0 8 C0 5.36 0 2.72 0 0 Z " fill="#BC8D75" transform="translate(39,77)"/>
<path d="M0 0 C1.32 0.66 2.64 1.32 4 2 C4 3.65 4 5.3 4 7 C3.34 6.01 2.68 5.02 2 4 C1.01 4 0.02 4 -1 4 C-0.67 2.68 -0.34 1.36 0 0 Z " fill="#F3D3AE" transform="translate(48,77)"/>
<path d="M0 0 C0.99 0 1.98 0 3 0 C3 0.99 3 1.98 3 3 C2.01 3.495 2.01 3.495 1 4 C0.34444881 6.52733235 0.34444881 6.52733235 0 9 C-0.33 9 -0.66 9 -1 9 C-1.125 2.25 -1.125 2.25 0 0 Z " fill="#EEECED" transform="translate(63,65)"/>
</svg>
